<svg xmlns="http://www.w3.org/2000/svg" xmlns:xlink="http://www.w3.org/1999/xlink" width="714" height="714" viewBox="0 0 714 714">
  <defs>
    <filter id="Ellipse_7" x="0" y="0" width="714" height="714" filterUnits="userSpaceOnUse">
      <feOffset input="SourceAlpha"/>
      <feGaussianBlur stdDeviation="10" result="blur"/>
      <feFlood flood-opacity="0.306"/>
      <feComposite operator="in" in2="blur"/>
      <feComposite in="SourceGraphic"/>
    </filter>
  </defs>
  <g id="Group_30" data-name="Group 30" transform="translate(-1004 -2270.569)">
    <g transform="matrix(1, 0, 0, 1, 1004, 2270.57)" filter="url(#Ellipse_7)">
      <circle id="Ellipse_7-2" data-name="Ellipse 7" cx="327" cy="327" r="327" transform="translate(30 30)" fill="#fff"/>
    </g>
    <g id="Group_29" data-name="Group 29" transform="translate(965.521 -320.051)">
      <g id="Group_21" data-name="Group 21" transform="translate(135.209 2740.482)">
        <path id="Union_1" data-name="Union 1" d="M222.979,362.281s-3.642.775-5.974,0-17.417-8.838-25.472-12.219A58.694,58.694,0,0,0,185.522,348c-8.5-2.477-20.267-4.6-30.114-6.246-1.026-.175-2.113-.319-3.246-.448a151.459,151.459,0,0,0-18.777-.73,146.776,146.776,0,0,0-17.994,1.178c-5.3.882-11.513,4.742-15.494,6.216a9.472,9.472,0,0,1-1.924.54c-3.633.517-19.749-6.5-32.483-9.354-1.255-.281-2.54-.547-3.832-.79a207.565,207.565,0,0,0-24.231-2.85l2.857-2.341-3.642-3.64,2.341-.775,3.642-2.6s.772-2.857,1.813-3.9,5.2-9.354,6.757-9.879.524-3.64,0-4.415-4.157,1.3-5.455,2.6-1.818,4.939-1.818,4.939-3.383-.524-4.155-1.375-2.341,5.274-2.341,5.274,2.6,2.6,1.3,3.374-5.463.258-5.463.258l2.341-8.906,3.9-4.088,3.124-6.5,4.155-.258.515-2.075,1.2-1c.113-.1.227-.19.355-.3,1.567-1.3,0-5.2,0-5.2s-4.155-2.082-5.457,0-3.113,5.2-3.113,5.2l-1.3-2.082-6.24,1.3s-3.374.783-4.155,2.6a12.034,12.034,0,0,1-3.118,3.64l-2.241-1.824s4.315-4.673,4.576-5.456-.776-3.374-.776-3.374H21.573l-.423,6.581-.1,1.474-1.818,2.075-6.24,1.041s-1.3,2.6,0,3.9c.7.7,1.862.41,2.615.129.631-.243.973-.486.5-.129-1.033.783,1.3,1.824,2.341,3.9s-2.341,3.488-2.341,3.488,0,2.492,3.9,2.751,3.639,3.64,3.639,3.64a14.674,14.674,0,0,0,3.383,4.415c1.818,1.3,3.9,2.341,5.2,3.382a6.573,6.573,0,0,1,1.818,3.115,89.29,89.29,0,0,1-10.4,0c-3.639-.114-8.275.813-12.272,1.748C6.24,337.41,2.16,338.61,2.6,337.592a57.219,57.219,0,0,0,1.824-7.28l.517-6.239a27.7,27.7,0,0,0-1.824-5.456C1.818,315.76,0,309.263,0,307.439c0-1.634,1.895-6,3.982-7.234a2.257,2.257,0,0,1,.7-.3c2.335-.524,1.3-2.865,1.3-3.9s-.267-4.164-.267-4.164l-1.035-3.632,2.074-1.565,1.3-4.415s1.555-1.816,2.339-1.816,3.9,2.074,3.9,2.074l1.3-4.673,6.237,1.3,1.559-4.164,3.639.266a16.339,16.339,0,0,0,6.755,1.3c4.159,0,3.9-3.123,3.9-3.123l-.783-5.2s1.3,0,5.724-.517,6.755-4.157,8.57-5.722-1.033-4.415-1.033-4.415a3.565,3.565,0,0,1,2.333-1.816c1.559-.266,4.937-12.478,4.937-12.478s4.681-.783,6.755-2.082,5.2-6.755,5.2-6.755l1.009-.084,2.113-.175-.524-2.341s-1.815-1.3-1.815-2.6-.783-7.014-.517-8.313,11.953-15.851,12.986-17.417,7.02-4.157,7.02-4.157l2.859-8.055s4.416.517,5.455.517,2.6-2.333,2.859-6.755a10.752,10.752,0,0,0-1.818-7.014l5.457-.517.526-5.464h3.629s-1.555-5.714-2.6-6.755-3.374-3.64-3.374-3.64-2.6-2.075,2.6-3.374,3.116-8.579,3.116-8.579,9.355-2.341,10.92-1.816,3.372,0,6.5-1.824.774-10.137,2.859-10.912c1-.38,1.709.221,2.607.821a4.61,4.61,0,0,0,4.148.737c3.9-1.041,4.937-7.8,4.937-7.8a91.578,91.578,0,0,1,10.655-5.715c4.416-1.824,9.614-3.64,9.614-3.64a10.177,10.177,0,0,0,5.228-.114,7.453,7.453,0,0,0,1.533-.669c3.116-1.816,4.94-9.613,6.237-10.912s5.2-1.816,5.2-1.816l.257-2.865a42.076,42.076,0,0,0,7.538,2.584,11.253,11.253,0,0,0,2.859.281c3.639-.266,3.9-5.722,4.416-6.5s3.9-1.3,8.32-1.824,5.972-8.055,7.014-10.4-5.716-3.64-5.716-3.64a33.646,33.646,0,0,1,1.559-5.2c1.041-2.6-5.72-4.932-5.72-4.932l.783-8.321s5.453-.258,8.579-2.341,1.039-10.912.515-12.728-3.642-1.3-3.642-1.3l-1.039-2.34s1.824-2.6,1.039-3.123-1.3-2.074,1.041-2.857,2.857-4.932,2.857-4.932a9.506,9.506,0,0,1,.267-2.082c.259-1.041-2.863-2.082-2.863-2.082a8.137,8.137,0,0,1-.261-2.857c.261-.775,5.716-5.98,5.716-5.98s3.381,3.381,6.24,2.6,5.979-10.912,6.755-11.695-.776-8.313-.776-8.313a9.115,9.115,0,0,0,3.383-2.34A15.087,15.087,0,0,1,231.558,0a26.819,26.819,0,0,0,1.3,8.055c1.3,3.381,2.341,17.933,2.341,17.933l5.979,8.055a16,16,0,0,0,.259,4.681c.517,2.6,1.815,7.014,1.815,7.014s-.772,1.824-1.815,4.157-1.041,8.321-2.865,10.4-1.815,3.374-1.815,7.014,2.6,4.673,3.639,9.613-1.824,5.456-5.714,10.137S233.639,94.6,233.9,95.9s4.939,1.041,5.714,1.3,0,4.415-.515,6.239-1.3,5.456-1.3,5.456l-.261,1.3c-.259,1.3,3.639,3.116,5.972,6.239s3.383,1.034,9.364-.266,4.931-5.715,8.055-5.456,4.416,2.857,8.055,4.157,5.979,2.082,5.979,2.082a46.4,46.4,0,0,1-.524,4.939,13.643,13.643,0,0,0-.259,8.572c1.3,4.423,4.416,6.763,5.457,8.838s1.3,8.579,3.639,13.519a5.47,5.47,0,0,0,1.8,2.523,2.084,2.084,0,0,0,1.651-.038,4.09,4.09,0,0,1,2.786.114c3.376,1.3,3.633,4.673,7.016,7.272,2.181,1.672,5.547,1.185,8.222.7a15.142,15.142,0,0,1,3.473-.441c2.081.266,2.341,2.341,4.681,3.382,1.407.623,4.332-3.762,6.43-7.341,1.383-2.348,2.4-4.354,2.4-4.354a4.253,4.253,0,0,0,4.424.258c2.341-1.3-2.083-5.2-2.083-5.2s1.3-1.816,2.083-2.857-4.681-12.212-5.2-13.253,1.3-3.381,3.116-6.239-2.6-12.212-2.6-12.212a17.94,17.94,0,0,1,4.416-4.939c2.607-1.824.783-5.2.265-7.8s-2.339-7.28-1.041-8.838.257-6.5,1.041-9.879,11.427-12.728,11.427-12.728h4.94s-1.041,1.816,2.083,5.2,2.859,11.171,3.642,10.912,11.168-2.6,16.11-2.652,3.379,6.292,3.379,9.149,2.335,5.456,3.376,5.2a25.27,25.27,0,0,1,5.722-1.041c2,0,6.657-.479,10.713-.98.154-.023.312-.038.458-.061,4.155-.517,14.292-4.415,18.706-4.157s4.942,1.558,8.064,1.558,7.272-5.973,9.612-5.973,4.424,2.857,6.5,2.341,9.879-4.164,11.179-5.464,27.287,0,27.287,0-1.041,8.063.776,9.879,1.041,2.857,1.041,7.014,3.639,7.28,3.639,7.28l-2.857,4.681c-2.857,4.673-1.3,7.53-1.3,7.53a20.969,20.969,0,0,0-4.42,3.123.809.809,0,0,0-.092.091c-3.047,2.66-4.332,9.309-4.582,13.678a17.747,17.747,0,0,0,.434,4.377c.926,4.5,3.214,10.076,6.064,13.3.355.409.725.8,1.088,1.188l0,0a46.889,46.889,0,0,0,4.478,4.065c1.619,1.292,2.741,2.021,2.741,2.021v7.28a15.8,15.8,0,0,0,2.113.805,17.787,17.787,0,0,0,3.868.752c3.374.258,21.05,5.167,21.05,5.167L491.44,190.757s2.6,1.816,2.6,3.9-1.824,4.673-2.6,7.272.776,5.98.776,5.98,7.538,0,8.057.775a16.675,16.675,0,0,1,.045,4.407c-.184,3.321-.565,7.287-.565,7.287l-5.714,1.3a11.279,11.279,0,0,0,3.116,4.939,7.388,7.388,0,0,1,2.341,5.456l8.314,1.3,2.081,5.98,4.416,1.558a31.416,31.416,0,0,1,0,7.28c-.517,2.6-1.815,7.8-1.815,7.8l-2.6,3.374s.783,4.423-1.559,7.538-8.836,2.082-8.836,2.082l-1.559,4.673s-3.9,1.041-4.925,1.824a1.4,1.4,0,0,0-.259.289c-.712.965-.614,3.062-1.315,5.167-.78,2.341,1.818,4.157,1.559,6.756s-4.681,3.9-4.681,3.9a28.352,28.352,0,0,1-1.815,6.755,5.808,5.808,0,0,1-3.642,3.381l1.041,2.6-6.738,1-.276.046s-2.607,4.157-4.422,4.157-2.857,2.6-3.639,5.714c-.631,2.546-.062,4.917-.958,7.257a6.539,6.539,0,0,1-.857,1.581c-2.083,2.857-5.457,4.415-5.981,5.2s0,2.341.783,4.157.776,6.239.776,6.239,2.607,2.082,2.607,3.123-8.579.775-8.579-.266,2.081-4.673,2.081-4.673a10.6,10.6,0,0,0-4.422,0c-2.341.517-1.3,1.816-1.3,1.816l-3.374-.258v3.381s-5.2,0-6.24,2.591a22.9,22.9,0,0,0-1.3,5.722H436.6s-.774,1.041-1.289,1.816-12.22,8.321-14.036,8.838-6.755-.783-6.755-.783v-3.116l-3.9-1.041s.515-3.374-.785-3.374h-4.155s-1.815-5.2-3.639-5.2-4.942-3.123-4.942-3.123l2.867-2.857,4.67-3.116s-3.116-1.3-4.155-2.6a25.43,25.43,0,0,0-4.681-3.64c-.776-.524-4.157-.258-5.457-2.082-.455-.631-.562-2.386-.5-4.385.1-3.731.757-8.344.757-8.344l3.126-1.565s.257-4.673,1.815-4.932,3.9-.524,3.9-.524l.235-4.917.023-.54-2.074-1.041c-2.083-1.041-4.424-18.45-4.424-18.45a16.506,16.506,0,0,1,2.085-2.857c1.039-1.041-.267-3.9.257-4.939s4.424-5.2,4.157-5.98c-.075-.22-.6-.4-1.306-.585-1.717-.433-4.561-.828-4.933-1.748a3.223,3.223,0,0,1,.267-2.6l-1.824-3.64,12.218-8.579s-2.818-5.008-4.446-7.979c-.47-.859-.842-1.55-1.018-1.892-.776-1.565-2.333-12.477-2.333-12.477L401,232.6l-2.339-4.681,2.081-1.033,2.6-13.26a37.22,37.22,0,0,0,5.457,2.341,13.991,13.991,0,0,0,7.8,0s.783,1.558,4.937,2.857,5.2-2.6,7.281-2.857a5.718,5.718,0,0,1,3.9,1.3l1.815-1.558s1.818,2.075,3.383,1.558-2.083-5.456-2.083-5.456l2.083-4.939-4.422-.517-5.2-7.021h-2.857s-2.081-4.932-4.413-10.167c-2.243-5.015-20.01-9.217-28.8-10.706,0,0,0,0,0,.007-.381-.068-.744-.129-1.086-.182-8.32-1.3-14.558-1.558-21.315,0-5.964,1.375-9.3,4.374-13.4,6.486v0c-.547.281-1.1.547-1.672.79-2.378,1-4.694.433-7.157-.137-2.652-.608-5.463-1.216-8.692.137-6.24,2.6-3.639,1.558-7.8,8.055s-3.381,7.014-5.2,9.879-6.24,6.755-10.394,10.912-1.041,5.973.515,5.715S322,217,322,217l2.6,1.3s-1.3,7.538-4.159,10.654c-2.553,2.781-4.285,7.014-12.379,9.734-.973.335-2.044.638-3.214.92-10.92,2.6-27.813,11.178-35.342,16.634-.509.365-.975.722-1.392,1.071-5.773,4.818-3.327,7.91-3.813,13.48-.517,5.98,1.307,7.28,0,12.219a21,21,0,0,1-5.974,9.613c-1.557,1.558-2.6,3.64-2.6,8.055a5.264,5.264,0,0,1-1.914,4.309c-1.559,1.368-4.007,2.508-7.183,4.529-3.458,2.2-7.659,4.483-10.683,5.98a22.063,22.063,0,0,1-3.87,1.664q-1.562.148-5.455,11.064c-2.607,7.28-.783,5.98-.783,5.98a48.109,48.109,0,0,0-4.165,6.239c-2.59,4.415-.772,7.272.783,10.137a19.326,19.326,0,0,1,1.5,3.4,8.225,8.225,0,0,1,.319,1.269l4.155-.258s.267,2.6.526,4.415,5.2,2.6,5.2,2.6l-2.083,3.123Zm-10.262-9.362,3.68,1.17h1.967l2.145,1.368,0,0-2.14-1.366H216.4Zm-.393-15.593s3.511.98,3.9,2.341a5.251,5.251,0,0,1,.173,1.4,5.251,5.251,0,0,0-.173-1.4C215.835,338.306,212.324,337.326,212.324,337.326Zm-7.4-8.769h3.113l4.1,3.511,1.745,2.014-1.557,3.245,1.565-3.245-1.753-2.014-4.1-3.511h-3.113ZM201.8,309.065s1.369,6.877,1.369,7.242.188,3.48.774,3.868.981,2.34.981,2.34-.4-1.953-.975-2.34-.78-3.511-.78-3.868S201.8,309.065,201.8,309.065Zm1.557-15.008,1.552,2.9.015.023-.015-.023-1.542-2.9-2.927-4.286v.011Zm-13.64-15.593c.83,1.33,1.8,8.6,2.068,10.722h3.193l3.511,6.626h0l-3.5-6.626h-3.19c-.274-2.12-1.247-9.392-2.076-10.722-.417-.67-1.771-1.015-3.182-1.191C187.945,277.45,189.3,277.795,189.715,278.464ZM182.7,277.1l-.783-3.511a8.065,8.065,0,0,1-1.029.062,8.065,8.065,0,0,0,1.029-.062Zm.56-.008h0Zm-9.139-8.959s2.728,3.5,3.9,4.673a3.6,3.6,0,0,0,2.237.82,3.6,3.6,0,0,1-2.237-.82C176.851,271.641,174.123,268.137,174.123,268.137Zm2.925-9.164c.577-.576.962-3.037.973-3.114C178.01,255.936,177.619,258.4,177.048,258.973Zm-3.175-6.5,2.782,1.831,1.366,1.558-1.366-1.558Zm-4.621-6.163a32.922,32.922,0,0,1,4.871,2.143,32.922,32.922,0,0,0-4.871-2.143,7.84,7.84,0,0,0-1.807-.172A7.905,7.905,0,0,1,169.252,246.306Zm-4.482-3.313.19,3.313Zm-.646-10.54,1.619,5.274-1.612-5.274a15.9,15.9,0,0,1,1.809-2.523A15.556,15.556,0,0,0,164.124,232.453Zm1.815-2.523c1.133-1.134,4.093-4.828,4.279-5.057C170.032,225.1,167.066,228.8,165.94,229.93Zm.19-12.28,3.122,1.368,3.116,4.871-3.116-4.871-3.113-1.368s7.247-3.9,8.853-6.261C173.383,213.751,166.13,217.65,166.13,217.65Zm7.21-12.082c0,.973,3.314.973,3.314.973S173.34,206.54,173.34,205.567Zm1.369-2.926s-2.125-.7-2.155-1.277C172.583,201.938,174.709,202.642,174.709,202.642Zm-2.143-1.36c.19-.585,1.756-.973,2.341-2.143C174.313,200.309,172.756,200.7,172.566,201.282Zm2.341-2.143a52.65,52.65,0,0,0,1.745-5.263A55,55,0,0,1,174.908,199.139Zm259.519-3.313,3.413,1.079,2.874-2.249s.036-.068.1-.167a28.156,28.156,0,0,0,1.51-2.758,6.923,6.923,0,0,0,.09-1.441,6.923,6.923,0,0,1-.09,1.441,28.156,28.156,0,0,1-1.51,2.758c-.062.1-.1.167-.1.167l-2.874,2.249Zm-273.95-20.859h1.369l2.726,4.484H171.2l6.821,6.824L171.2,179.45h-6.629l-2.726-4.484h-1.362a17.651,17.651,0,0,0,.389-2.87A17.358,17.358,0,0,1,160.476,174.966ZM434.3,184.054c.118-.478.237-.965.351-1.413l0,0C434.533,183.087,434.413,183.576,434.3,184.054Zm6.466-3.237-1.788,1.269,1.788-1.269s1.557-1.368,1.557-1.953C442.321,179.45,440.764,180.818,440.764,180.818ZM433.355,180.422Zm-85.081-2.6h0Zm.19-.039.041-.018Zm45-.8a1.377,1.377,0,0,0-.171.1,1.377,1.377,0,0,1,.171-.1c1.565-.775,4.165-2.074,4.165-2.074S395.026,176.205,393.46,176.98Zm4.163-2.076a4.259,4.259,0,0,1-1.039-2.495A4.239,4.239,0,0,0,397.624,174.9Zm30.661-1.564,1.922,1.429h0l-1.922-1.429v0Zm-267.612-4.613s.2,2.143.2,3.313C160.872,170.87,160.673,168.728,160.673,168.728Zm280.04,2.211Zm-43.087-.456a9.873,9.873,0,0,0,3.113-3.9A9.873,9.873,0,0,1,397.626,170.483Zm-236.564-4.1-.389,2.34.4-2.333,1.362-2.538ZM418.545,158.2s6.428,9.164,7.014,10.335c-.586-1.17-7.014-10.335-7.014-10.335a.017.017,0,0,0,0-.008A.017.017,0,0,1,418.545,158.2Zm-11.823-6.429-2.6,3.336-8.32,11.474,8.32-11.474,2.6-3.336,4.67-3.123Zm42.354,12.994c-4.155.775-4.413,1.3-4.413,1.3s.259-.524,4.413-1.3,7.022-1.041,7.022-1.041S453.235,163.986,449.076,164.768Zm6.214-2.791c.006-.339.212-.591.808-.591h4.933l2.863-1.079-2.863,1.079H456.1C455.5,161.387,455.3,161.639,455.29,161.978Zm-287.017-5.135a38.873,38.873,0,0,1-2.889,3.1,39.173,39.173,0,0,0,2.9-3.1l.973-3.708Zm248.13-2.926ZM165.544,140.269l6.237,5.851a9.046,9.046,0,0,1-.2,3.9,6.419,6.419,0,0,1-2.331,3.115,6.411,6.411,0,0,0,2.339-3.115,9.006,9.006,0,0,0,.188-3.9ZM412.305,151.964Zm0-3.245Zm-1.245-.266ZM162.619,131.888c-1.557,1.953-.188,3.321-.188,3.321h0s-1.362-1.368.2-3.313a15.2,15.2,0,0,0,2.3-4.588A15.04,15.04,0,0,1,162.619,131.888ZM390.6,109.76c.216.122.443.243.663.365l-.577-.471Z" transform="translate(0 0)" fill="#fff"/>
      </g>
      <path id="Path_14" data-name="Path 14" d="M401.135,180.359v-2.6s-6.237-.519-7.276,0-2.6-2.6-2.6-2.6h-6.237l-3.379-3.119L377.328,170l-.621-.294-4.158,2.339-2.859-5.2-2.6-3.9-2.4-3.959c-2.1,3.579-5.022,7.964-6.434,7.337-2.339-1.04-2.6-3.119-4.678-3.379s-8.316,2.339-11.695-.26-3.638-5.977-7.017-7.276c-2.323-.894-3.295.547-4.436-.071a5.433,5.433,0,0,1-1.8-2.528c-2.339-4.937-2.6-11.435-3.638-13.514s-4.159-4.417-5.457-8.836a13.637,13.637,0,0,1,.26-8.576,45.907,45.907,0,0,0,.52-4.938s-2.339-.78-5.978-2.079-4.937-3.9-8.056-4.158-2.079,4.159-8.057,5.458-7.017,3.378-9.356.26-6.237-4.938-5.977-6.237l.26-1.3s.78-3.639,1.3-5.458,1.3-5.978.519-6.237-5.458,0-5.717-1.3-3.119-4.158.78-8.836,6.757-5.2,5.717-10.135-3.638-5.977-3.638-9.615,0-4.938,1.819-7.017,1.819-8.057,2.859-10.4,1.819-4.158,1.819-4.158-1.3-4.418-1.819-7.017a16.18,16.18,0,0,1-.26-4.678l-5.977-8.057s-1.04-14.554-2.339-17.932A26.808,26.808,0,0,1,276.911,0a15.22,15.22,0,0,0-3.639,2.859A9.181,9.181,0,0,1,269.894,5.2s1.559,7.536.78,8.316-3.9,10.915-6.757,11.695-6.237-2.6-6.237-2.6-5.458,5.2-5.717,5.978a8.086,8.086,0,0,0,.26,2.858s3.119,1.04,2.859,2.079a9.747,9.747,0,0,0-.26,2.079s-.52,4.158-2.859,4.938-1.819,2.339-1.039,2.859-1.04,3.119-1.04,3.119l1.04,2.339s3.119-.52,3.638,1.3,2.6,10.655-.519,12.735-8.576,2.339-8.576,2.339l-.78,8.316s6.757,2.339,5.718,4.938a33.666,33.666,0,0,0-1.559,5.2s6.757,1.3,5.717,3.639-2.6,9.875-7.017,10.4-7.8,1.04-8.316,1.82-.78,6.237-4.417,6.5a10.9,10.9,0,0,1-2.86-.277,41.943,41.943,0,0,1-7.537-2.582l-.26,2.859s-3.9.519-5.2,1.819-3.119,9.1-6.237,10.915a7.42,7.42,0,0,1-1.535.668l-.284,3.88-.585,3.9a15.423,15.423,0,0,1-2.339,4.678c-1.559,1.949-.195,3.314-.195,3.314H210.9v5.068l6.237,5.847a9.052,9.052,0,0,1-.195,3.9,6.416,6.416,0,0,1-2.339,3.119l-.975,3.7a37.558,37.558,0,0,1-2.924,3.119,33.535,33.535,0,0,0-2.924,3.9l-1.364,2.534-.39,2.339s.195,2.144.195,3.314a17.167,17.167,0,0,1-.39,2.924H207.2l2.729,4.483h6.627l6.822,6.822-1.364,3.508v4.093a53.8,53.8,0,0,1-1.754,5.263c-.585,1.169-2.144,1.559-2.339,2.144s2.144,1.364,2.144,1.364l-1.364,1.949v.975c0,.975,3.313.975,3.313.975a12.381,12.381,0,0,1-1.559,4.678c-1.364,2.339-8.966,6.432-8.966,6.432l3.119,1.364,3.119,4.873-2.144.975s-3.119,3.9-4.288,5.068a15.863,15.863,0,0,0-1.809,2.524l1.614,5.273v3.119l-.975,2.144.195,3.314a14.638,14.638,0,0,1,4.288,0,33.157,33.157,0,0,1,4.873,2.144v3.9l-.247.124,2.781,1.825,1.364,1.559s-.39,2.534-.975,3.119a13.265,13.265,0,0,0-1.364,3.338l-1.559,5.823s2.729,3.508,3.9,4.678,3.9.78,3.9.78l.78,3.508s6.042-.195,7.017,1.364c.83,1.329,1.8,8.6,2.072,10.72h3.191l3.508,6.627h1.949V289.77l2.924,4.288,1.548,2.9.012.023v8.157l-3.119,3.928s1.364,6.873,1.364,7.238.195,3.483.78,3.872.975,2.339.975,2.339v6.042h3.119l4.093,3.508,1.754,2.014-1.559,3.249s3.508.975,3.9,2.339a7.511,7.511,0,0,1,0,3.119l-3.313,3.119L258.069,348v4.923l3.682,1.169h1.971l2.144,1.364,3.444-1.463a19.756,19.756,0,0,0-1.495-3.409c-1.559-2.859-3.378-5.717-.78-10.135a48.021,48.021,0,0,1,4.159-6.237s-1.82,1.3.78-5.978,4.418-10.964,5.458-11.069A21.949,21.949,0,0,0,281.3,315.5c3.023-1.494,7.229-3.782,10.684-5.98,3.177-2.021,5.627-3.161,7.181-4.531a5.239,5.239,0,0,0,1.915-4.3c0-4.418,1.039-6.5,2.6-8.056a21.02,21.02,0,0,0,5.978-9.615c1.3-4.938-.52-6.237,0-12.215.485-5.574-1.966-8.663,3.815-13.481.419-.348.875-.7,1.383-1.073,7.536-5.458,24.429-14.034,35.344-16.632,1.176-.28,2.242-.589,3.22-.918,8.094-2.725,9.823-6.955,12.373-9.737,2.859-3.119,4.158-10.655,4.158-10.655l-2.6-1.3s-4.418,2.859-5.978,3.119-4.676-1.559-.519-5.717,8.576-8.056,10.4-10.915,1.041-3.379,5.2-9.876,1.559-5.457,7.8-8.056,10.916,2.079,15.853,0c.575-.242,1.129-.508,1.67-.787Z" transform="translate(89.858 2740.482)" fill="#fabe37" opacity="0.296"/>
      <path id="Union_3" data-name="Union 3" d="M95.181,290.028v-3.118l-3.9-1.04s.519-3.378-.779-3.378H86.345s-1.819-5.2-3.638-5.2-4.938-3.119-4.938-3.119l2.86-2.859,4.677-3.117s-3.118-1.3-4.157-2.6a25.553,25.553,0,0,0-4.678-3.638c-.78-.521-4.158-.26-5.458-2.08-.453-.637-.557-2.385-.5-4.39.1-3.728.761-8.344.761-8.344l3.119-1.56s.259-4.677,1.819-4.938,3.9-.52,3.9-.52l.235-4.921.026-.536-2.079-1.04c-2.078-1.04-4.418-18.452-4.418-18.452a16.444,16.444,0,0,1,2.08-2.857c1.04-1.04-.261-3.9.259-4.939s4.418-5.2,4.158-5.977c-.077-.227-.6-.409-1.307-.587-1.72-.433-4.562-.831-4.93-1.752a3.224,3.224,0,0,1,.26-2.6l-1.82-3.638,12.215-8.575s-2.819-5.013-4.445-7.984c-.469-.856-.839-1.543-1.013-1.892-.779-1.56-2.339-12.474-2.339-12.474l4.678-.26-2.339-4.678,2.079-1.039,2.6-13.254a37.579,37.579,0,0,0,5.458,2.338,13.988,13.988,0,0,0,7.8,0s.779,1.56,4.938,2.859,5.2-2.6,7.276-2.859a5.7,5.7,0,0,1,3.9,1.3l1.819-1.56s1.82,2.079,3.38,1.56-2.079-5.458-2.079-5.458l2.079-4.937-4.418-.52-5.2-7.017H106.1s-2.079-4.937-4.418-10.171c-2.241-5.017-20.01-9.219-28.8-10.7h0c-.376-.063-.744-.124-1.086-.177-8.316-1.3-14.553-1.56-21.311,0-5.969,1.378-9.3,4.377-13.4,6.491l-.631-4.411v-2.6s-6.237-.519-7.276,0-2.6-2.6-2.6-2.6H20.335L16.956,101.1,12.64,99.05l-.621-.293L7.861,101.1,5,95.9,2.4,92,0,88.041c1.379-2.352,2.4-4.358,2.4-4.358a4.238,4.238,0,0,0,4.418.26c2.339-1.3-2.079-5.2-2.079-5.2s1.3-1.819,2.079-2.858-4.678-12.215-5.2-13.254,1.3-3.38,3.119-6.237-2.6-12.215-2.6-12.215a17.943,17.943,0,0,1,4.418-4.938c2.6-1.819.78-5.2.26-7.8s-2.339-7.277-1.04-8.835.259-6.5,1.04-9.876S18.256,0,18.256,0h4.938s-1.04,1.82,2.079,5.2,2.858,11.175,3.638,10.915,11.176-2.6,16.113-2.656,3.378,6.3,3.378,9.154,2.339,5.457,3.38,5.2a25.138,25.138,0,0,1,5.717-1.04c2,0,6.663-.483,10.719-.983l.455-.056c4.158-.519,14.294-4.418,18.711-4.158s4.939,1.559,8.057,1.559,7.277-5.977,9.616-5.977,4.418,2.858,6.5,2.339,9.876-4.158,11.176-5.458,27.287,0,27.287,0-1.04,8.057.78,9.876,1.04,2.858,1.04,7.017,3.638,7.277,3.638,7.277l-2.858,4.677c-2.859,4.678-1.3,7.537-1.3,7.537a20.707,20.707,0,0,0-4.418,3.119c-.032.028-.062.062-.1.091-3.047,2.658-4.326,9.312-4.582,13.683a17.636,17.636,0,0,0,.437,4.374c.929,4.5,3.215,10.072,6.06,13.3.364.412.732.8,1.1,1.189h0a46.207,46.207,0,0,0,4.472,4.066c1.616,1.292,2.743,2.022,2.743,2.022v7.277a15.351,15.351,0,0,0,2.11.807,17.785,17.785,0,0,0,3.867.753c3.379.259,21.051,5.163,21.051,5.163l-11.955,13.548s2.6,1.819,2.6,3.9-1.82,4.678-2.6,7.277.78,5.978.78,5.978,7.537,0,8.057.779a16.787,16.787,0,0,1,.044,4.406c-.187,3.323-.565,7.29-.565,7.29l-5.717,1.3a11.3,11.3,0,0,0,3.118,4.938,7.376,7.376,0,0,1,2.339,5.457l8.315,1.3,2.08,5.977,4.417,1.56a31.669,31.669,0,0,1,0,7.276c-.518,2.6-1.819,7.8-1.819,7.8l-2.6,3.379s.779,4.418-1.56,7.537-8.835,2.079-8.835,2.079l-1.56,4.677s-3.9,1.04-4.919,1.819a1.426,1.426,0,0,0-.263.288c-.716.966-.614,3.063-1.316,5.17-.779,2.339,1.82,4.159,1.56,6.758s-4.678,3.9-4.678,3.9a28.5,28.5,0,0,1-1.819,6.758,5.817,5.817,0,0,1-3.639,3.378l1.041,2.6-6.742,1-.276.041s-2.6,4.158-4.418,4.158-2.858,2.6-3.638,5.717c-.636,2.544-.063,4.914-.958,7.253a6.791,6.791,0,0,1-.861,1.583c-2.08,2.859-5.458,4.417-5.978,5.2s0,2.338.779,4.158.78,6.237.78,6.237,2.6,2.079,2.6,3.119-8.575.781-8.575-.26,2.078-4.678,2.078-4.678a10.7,10.7,0,0,0-4.417,0c-2.339.519-1.3,1.82-1.3,1.82l-3.378-.26v3.379s-5.2,0-6.237,2.6a23.045,23.045,0,0,0-1.3,5.717h-5.457s-.779,1.039-1.3,1.819-12.214,8.316-14.034,8.837a4.291,4.291,0,0,1-1.131.122A28.649,28.649,0,0,1,95.181,290.028Zm26.3-166.489-.1.165h0s.037-.064.1-.165c.091-.152.238-.4.406-.688C121.718,123.14,121.57,123.387,121.479,123.539ZM114.412,122.535Zm8.663-3.219c0-1.176-.062-2.668-.081-3.094C123.013,116.648,123.075,118.14,123.075,119.316Zm-8.663-3.6c0-.008,0-.016,0-.025C114.412,115.7,114.412,115.7,114.412,115.713Zm0-.028a4.825,4.825,0,0,1,.087-.544A4.816,4.816,0,0,0,114.413,115.685Zm.715-3.251c.063-.255.125-.506.185-.745h0C115.253,111.928,115.19,112.179,115.128,112.434Zm4.517-1.293.247.562-.247-.562ZM114.023,109.476Zm8.959-1.487a.414.414,0,0,0,.007-.072A.414.414,0,0,1,122.981,107.989Zm.007-.072a23.433,23.433,0,0,0-.973-3.311A23.472,23.472,0,0,1,122.988,107.917ZM115.386,106.747Zm6.237-4.352A14.325,14.325,0,0,1,122,104.5a14.368,14.368,0,0,0-.378-2.107.685.685,0,0,1-.024-.086A.725.725,0,0,0,121.624,102.4Zm-43.411,1.6.076-.038Zm.074-.041a4.253,4.253,0,0,1-1.037-2.469A4.251,4.251,0,0,0,78.286,103.951Zm30.668-1.557h0c-.011-.02-.435-.739-.954-1.635C108.526,101.668,108.954,102.394,108.954,102.394Zm12.426-2.4c.029.459.061.91.094,1.3-.033-.388-.065-.841-.094-1.3ZM76.47,95.637h0Zm60.292-2.859h0a3.957,3.957,0,0,1-.808-1.736A3.929,3.929,0,0,0,136.761,92.778Zm-39.7-9.81A2.41,2.41,0,0,0,95.9,81.931,2.413,2.413,0,0,1,97.065,82.968ZM92.063,77.706Zm0,0-.333-.2h0ZM71.27,38.813l.664.365-.583-.474Z" transform="translate(454.544 2811.43)" fill="#80bfed" opacity="0.395"/>
      <path id="Path_17" data-name="Path 17" d="M228.957,393.174c-.26-1.819-.52-4.418-.52-4.418l-4.158.26a8.655,8.655,0,0,0-.325-1.268l-3.443,1.463-2.144-1.364H216.4l-3.682-1.169v-4.923l.195-2.093,3.314-3.119a7.511,7.511,0,0,0,0-3.119c-.39-1.364-3.9-2.339-3.9-2.339l1.559-3.249-1.754-2.014-4.093-3.508h-3.119V356.27s-.39-1.949-.975-2.339-.78-3.508-.78-3.872-1.364-7.238-1.364-7.238l3.119-3.928v-8.157l-.012-.023-1.547-2.9-2.924-4.288v6.042h-1.949l-3.508-6.627h-3.192c-.269-2.121-1.24-9.392-2.071-10.72-.975-1.559-7.017-1.364-7.017-1.364l-.78-3.508s-2.729.39-3.9-.78-3.9-4.678-3.9-4.678l1.559-5.823a13.265,13.265,0,0,1,1.364-3.338c.585-.585.975-3.119.975-3.119l-1.364-1.559-2.782-1.825.248-.124v-3.9a33.153,33.153,0,0,0-4.873-2.144,14.636,14.636,0,0,0-4.288,0l-.195-3.313.975-2.144v-3.119l-1.615-5.273a15.771,15.771,0,0,1,1.81-2.524c1.169-1.169,4.288-5.068,4.288-5.068l2.144-.975-3.119-4.873-3.119-1.364s7.6-4.093,8.966-6.432a12.38,12.38,0,0,0,1.559-4.678s-3.314,0-3.314-.975v-.975l1.364-1.949s-2.339-.78-2.144-1.364,1.754-.975,2.339-2.144a53.811,53.811,0,0,0,1.754-5.263v-4.093l1.364-3.508-6.822-6.822h-6.627l-2.729-4.483h-1.364a17.167,17.167,0,0,0,.39-2.924c0-1.169-.195-3.313-.195-3.313l.39-2.339,1.364-2.534a33.536,33.536,0,0,1,2.924-3.9,37.549,37.549,0,0,0,2.924-3.119l.975-3.7a6.415,6.415,0,0,0,2.339-3.119,9.052,9.052,0,0,0,.195-3.9l-6.237-5.847V168.96h-3.119s-1.364-1.364.195-3.314a15.423,15.423,0,0,0,2.339-4.678l.585-3.9.284-3.88a10.142,10.142,0,0,1-5.222.112s-5.2,1.82-9.615,3.639a91.656,91.656,0,0,0-10.655,5.717s-1.039,6.757-4.938,7.8-4.678-2.339-6.757-1.559.26,9.1-2.858,10.915-4.938,2.339-6.5,1.82-10.915,1.819-10.915,1.819,2.079,7.276-3.119,8.576-2.6,3.378-2.6,3.378,2.339,2.6,3.378,3.639,2.6,6.757,2.6,6.757h-3.639l-.52,5.458-5.458.519a10.8,10.8,0,0,1,1.82,7.017c-.26,4.418-1.82,6.757-2.859,6.757s-5.458-.52-5.458-.52l-2.859,8.057s-5.978,2.6-7.017,4.158-12.734,16.112-12.994,17.412.519,7.017.519,8.317,1.82,2.6,1.82,2.6l.519,2.339-2.11.176-1.009.084s-3.119,5.457-5.2,6.756-6.757,2.079-6.757,2.079S54.056,289.221,52.5,289.48a3.587,3.587,0,0,0-2.339,1.819s2.858,2.859,1.039,4.418-4.158,5.2-8.576,5.717-5.717.52-5.717.52l.78,5.2s.26,3.119-3.9,3.119a16.332,16.332,0,0,1-6.757-1.3l-3.639-.26L21.83,312.87l-6.237-1.3-1.3,4.678s-3.119-2.078-3.9-2.078-2.339,1.819-2.339,1.819l-1.3,4.418-2.079,1.559,1.04,3.638s.26,3.119.26,4.159,1.039,3.379-1.3,3.9a2.41,2.41,0,0,0-.7.3C1.9,335.2,0,339.559,0,341.2c0,1.82,1.819,8.317,3.119,11.175a28.073,28.073,0,0,1,1.82,5.458l-.52,6.237A57.272,57.272,0,0,1,2.6,371.343c-.78,1.819,12.734-3.378,21.05-3.119a88.881,88.881,0,0,0,10.4,0,6.643,6.643,0,0,0-1.819-3.118c-1.3-1.039-3.379-2.079-5.2-3.378a14.568,14.568,0,0,1-3.378-4.418s.26-3.377-3.639-3.638-3.9-2.754-3.9-2.754,3.378-1.4,2.339-3.483-3.378-3.119-2.339-3.9-1.819,1.3-3.119,0,0-3.9,0-3.9l6.237-1.04,1.819-2.079.1-1.472.425-6.585h5.458s1.039,2.6.78,3.379S23.23,337.3,23.23,337.3l2.238,1.819a11.939,11.939,0,0,0,3.119-3.639c.78-1.819,4.158-2.6,4.158-2.6l6.237-1.3,1.3,2.079s1.819-3.119,3.119-5.2,5.458,0,5.458,0,1.559,3.9,0,5.2l-.358.3-1.2,1-.52,2.079-4.158.26L39.5,343.8l-3.9,4.085-2.339,8.909s4.158.519,5.458-.26-1.3-3.378-1.3-3.378,1.559-6.122,2.339-5.27,4.159,1.372,4.159,1.372.519-3.638,1.819-4.938,4.938-3.379,5.458-2.6,1.559,3.9,0,4.418-5.718,8.837-6.757,9.876-1.819,3.9-1.819,3.9l-3.639,2.6-2.339.78,3.639,3.639-2.859,2.339a207.943,207.943,0,0,1,24.235,2.851c1.291.243,2.574.5,3.833.787,12.735,2.859,28.847,9.875,32.486,9.356a9.8,9.8,0,0,0,1.916-.538c3.989-1.473,10.2-5.336,15.5-6.218a147.568,147.568,0,0,1,18-1.174,152.112,152.112,0,0,1,18.779.725c1.131.13,2.22.278,3.246.449,9.845,1.64,21.617,3.768,30.108,6.251a58.247,58.247,0,0,1,6.015,2.064c8.056,3.379,23.13,11.435,25.469,12.215s5.977,0,5.977,0l9.1,2.859,2.079-3.119s-4.938-.78-5.2-2.6" transform="translate(135.211 2706.727)" fill="#ffa8ca" opacity="0.298"/>
    </g>
    <rect id="Rectangle_45" data-name="Rectangle 45" width="180" height="64" rx="32" transform="translate(1018 2527.569)" fill="#ed8fb4"/>
    <rect id="Rectangle_46" data-name="Rectangle 46" width="180" height="64" rx="32" transform="translate(1351 2384.569)" fill="#dea71e"/>
    <rect id="Rectangle_47" data-name="Rectangle 47" width="266" height="64" rx="32" transform="translate(1399 2798.569)" fill="#3a9be5"/>
    <text id="西部エリア" transform="translate(1108.512 2570.878)" fill="#fff" font-size="27" font-family="ShipporiMincho-Bold, しっぽり明朝" font-weight="700"><tspan x="-67.5" y="0">西部エリア</tspan></text>
    <text id="中部エリア" transform="translate(1441.512 2427.878)" fill="#fff" font-size="27" font-family="ShipporiMincho-Bold, しっぽり明朝" font-weight="700"><tspan x="-67.5" y="0">中部エリア</tspan></text>
    <text id="東部_伊豆エリア" data-name="東部・伊豆エリア" transform="translate(1532 2841.878)" fill="#fff" font-size="27" font-family="ShipporiMincho-Bold, しっぽり明朝" font-weight="700"><tspan x="-108" y="0">東部・伊豆エリア</tspan></text>
  </g>
</svg>
