<svg xmlns="http://www.w3.org/2000/svg" xmlns:xlink="http://www.w3.org/1999/xlink" width="328" height="310" viewBox="0 0 328 310">
  <defs>
    <filter id="Ellipse_7" x="18" y="0" width="310" height="310" filterUnits="userSpaceOnUse">
      <feOffset input="SourceAlpha"/>
      <feGaussianBlur stdDeviation="5" result="blur"/>
      <feFlood flood-opacity="0.306"/>
      <feComposite operator="in" in2="blur"/>
      <feComposite in="SourceGraphic"/>
    </filter>
  </defs>
  <g id="Group_66" data-name="Group 66" transform="translate(-15 -1849)">
    <g transform="matrix(1, 0, 0, 1, 15, 1849)" filter="url(#Ellipse_7)">
      <circle id="Ellipse_7-2" data-name="Ellipse 7" cx="140" cy="140" r="140" transform="translate(33 15)" fill="#fff"/>
    </g>
    <g id="Group_29" data-name="Group 29" transform="translate(93 1936)">
      <g id="Group_21" data-name="Group 21" transform="translate(0 0)">
        <path id="Union_1" data-name="Union 1" d="M82.768,134.475a5.273,5.273,0,0,1-2.218,0c-.868-.29-6.465-3.28-9.455-4.536a21.785,21.785,0,0,0-2.231-.767,107.062,107.062,0,0,0-11.178-2.319c-.381-.065-.784-.118-1.2-.166a56.216,56.216,0,0,0-6.97-.271,54.487,54.487,0,0,0-6.679.437c-1.966.327-4.273,1.76-5.751,2.307a3.517,3.517,0,0,1-.714.2c-1.349.192-7.331-2.412-12.057-3.472-.466-.1-.943-.2-1.422-.293a77.045,77.045,0,0,0-8.994-1.058l1.06-.869L13.6,122.318l.869-.288,1.352-.965a4.3,4.3,0,0,1,.673-1.447c.387-.386,1.93-3.472,2.508-3.667s.194-1.351,0-1.639-1.543.482-2.025.965a4.241,4.241,0,0,0-.675,1.833,4.11,4.11,0,0,1-1.542-.511c-.291-.316-.869,1.958-.869,1.958s.964.965.482,1.252a5.02,5.02,0,0,1-2.028.1l.869-3.306,1.447-1.518,1.16-2.412,1.542-.1.191-.77.447-.372c.042-.037.084-.071.132-.11.582-.482,0-1.929,0-1.929s-1.542-.773-2.026,0-1.156,1.929-1.156,1.929l-.483-.773-2.316.482s-1.252.29-1.542.965a4.467,4.467,0,0,1-1.157,1.351l-.832-.677a20.591,20.591,0,0,0,1.7-2.025,3.45,3.45,0,0,0-.288-1.252H8.008l-.157,2.443-.037.547-.675.77-2.316.386s-.482.965,0,1.447c.26.26.691.152.971.048.234-.09.361-.181.186-.048-.383.291.483.677.869,1.447s-.869,1.295-.869,1.295,0,.925,1.447,1.021A1.285,1.285,0,0,1,8.778,120.1a5.447,5.447,0,0,0,1.256,1.639c.675.482,1.447.869,1.929,1.255a2.44,2.44,0,0,1,.675,1.156,33.144,33.144,0,0,1-3.859,0,19.3,19.3,0,0,0-4.555.649c-1.907.443-3.421.889-3.257.511a21.239,21.239,0,0,0,.677-2.7l.192-2.316a10.283,10.283,0,0,0-.677-2.025A17.036,17.036,0,0,1,0,114.119a4.305,4.305,0,0,1,1.478-2.685.838.838,0,0,1,.26-.11c.867-.195.483-1.063.483-1.447s-.1-1.546-.1-1.546l-.384-1.348.77-.581.483-1.639s.577-.674.868-.674a6.571,6.571,0,0,1,1.447.77l.483-1.735,2.315.482.579-1.546,1.351.1a6.065,6.065,0,0,0,2.507.482c1.544,0,1.447-1.159,1.447-1.159L13.7,99.553s.483,0,2.125-.192S18.329,97.818,19,97.237,18.62,95.6,18.62,95.6a1.323,1.323,0,0,1,.866-.674c.579-.1,1.833-4.632,1.833-4.632a9.233,9.233,0,0,0,2.507-.773,10.1,10.1,0,0,0,1.93-2.508l.375-.031.784-.065-.194-.869s-.674-.482-.674-.965-.291-2.6-.192-3.086,4.437-5.884,4.82-6.465a9.983,9.983,0,0,1,2.606-1.543L34.342,71s1.639.192,2.025.192.965-.866,1.061-2.508a3.991,3.991,0,0,0-.675-2.6l2.026-.192.2-2.028h1.347a10.658,10.658,0,0,0-.964-2.508C38.974,60.966,38.105,60,38.105,60s-.965-.77.964-1.252,1.156-3.185,1.156-3.185,3.473-.869,4.054-.674,1.252,0,2.411-.677.287-3.763,1.061-4.05c.371-.141.634.082.968.3a1.711,1.711,0,0,0,1.54.274c1.447-.386,1.833-2.894,1.833-2.894a33.992,33.992,0,0,1,3.955-2.121c1.639-.677,3.569-1.351,3.569-1.351a3.778,3.778,0,0,0,1.941-.042,2.767,2.767,0,0,0,.569-.248c1.156-.674,1.833-3.568,2.315-4.051a4.53,4.53,0,0,1,1.93-.674l.1-1.063a15.619,15.619,0,0,0,2.8.959,4.177,4.177,0,0,0,1.061.1c1.351-.1,1.447-2.124,1.639-2.412s1.447-.482,3.088-.677,2.217-2.99,2.6-3.859-2.122-1.351-2.122-1.351a12.49,12.49,0,0,1,.579-1.929C76.5,28.167,73.99,27.3,73.99,27.3l.291-3.089a7.6,7.6,0,0,0,3.184-.869c1.156-.77.386-4.05.191-4.725s-1.352-.482-1.352-.482l-.386-.869s.677-.965.386-1.159-.482-.77.387-1.061,1.06-1.831,1.06-1.831a3.529,3.529,0,0,1,.1-.773c.1-.386-1.063-.773-1.063-.773a3.02,3.02,0,0,1-.1-1.061,24.331,24.331,0,0,1,2.122-2.22s1.255,1.255,2.316.965,2.219-4.05,2.507-4.341-.288-3.086-.288-3.086A3.383,3.383,0,0,0,84.6,1.061,5.6,5.6,0,0,1,85.952,0a9.955,9.955,0,0,0,.482,2.99c.483,1.255.869,6.657.869,6.657l2.219,2.99a5.938,5.938,0,0,0,.1,1.738c.192.965.674,2.6.674,2.6s-.287.677-.674,1.543-.387,3.089-1.064,3.861-.674,1.252-.674,2.6.964,1.735,1.351,3.568-.677,2.025-2.121,3.763-.387,2.8-.291,3.28,1.834.386,2.121.482,0,1.639-.191,2.316-.482,2.025-.482,2.025l-.1.482c-.1.482,1.351,1.157,2.217,2.316s1.256.384,3.476-.1,1.83-2.121,2.99-2.025,1.639,1.061,2.99,1.543,2.219.773,2.219.773a17.224,17.224,0,0,1-.194,1.833,5.064,5.064,0,0,0-.1,3.182c.483,1.642,1.639,2.51,2.026,3.28s.482,3.185,1.351,5.018a2.031,2.031,0,0,0,.668.936.774.774,0,0,0,.613-.014,1.518,1.518,0,0,1,1.034.042c1.253.482,1.349,1.735,2.6,2.7.81.621,2.059.44,3.052.259a5.62,5.62,0,0,1,1.289-.164c.772.1.869.869,1.737,1.255.522.231,1.608-1.4,2.387-2.725.514-.872.891-1.616.891-1.616a1.579,1.579,0,0,0,1.642.1c.869-.482-.773-1.929-.773-1.929s.482-.674.773-1.061-1.737-4.533-1.93-4.919.483-1.255,1.156-2.316-.964-4.533-.964-4.533a6.659,6.659,0,0,1,1.639-1.833c.968-.677.291-1.929.1-2.894s-.868-2.7-.387-3.28.1-2.412.387-3.667,4.242-4.725,4.242-4.725h1.833s-.387.674.773,1.929,1.061,4.146,1.352,4.051a36.251,36.251,0,0,1,5.98-.984c1.833-.023,1.254,2.335,1.254,3.4s.867,2.025,1.253,1.929a9.38,9.38,0,0,1,2.124-.386c.742,0,2.471-.178,3.977-.364.057-.008.116-.014.17-.023,1.542-.192,5.305-1.639,6.943-1.543s1.834.578,2.993.578,2.7-2.217,3.568-2.217,1.642,1.061,2.412.869a18.5,18.5,0,0,0,4.15-2.028c.482-.48,10.129,0,10.129,0s-.387,2.993.288,3.667.387,1.061.387,2.6a4.046,4.046,0,0,0,1.351,2.7l-1.06,1.738c-1.06,1.735-.483,2.8-.483,2.8a7.783,7.783,0,0,0-1.641,1.159.3.3,0,0,0-.034.034c-1.131.987-1.608,3.455-1.7,5.077a6.587,6.587,0,0,0,.161,1.625,11.744,11.744,0,0,0,2.251,4.936c.132.152.269.3.4.441h0a17.407,17.407,0,0,0,1.662,1.509c.6.48,1.018.75,1.018.75v2.7a5.866,5.866,0,0,0,.784.3,6.6,6.6,0,0,0,1.436.279c1.252.1,7.813,1.918,7.813,1.918l-4.438,5.029s.965.674.965,1.447-.677,1.735-.965,2.7a3.767,3.767,0,0,0,.288,2.22s2.8,0,2.991.288a6.19,6.19,0,0,1,.017,1.636c-.068,1.233-.21,2.705-.21,2.705l-2.121.482a4.187,4.187,0,0,0,1.156,1.833,2.742,2.742,0,0,1,.869,2.025l3.086.482.772,2.22,1.639.578a11.66,11.66,0,0,1,0,2.7c-.192.965-.674,2.894-.674,2.894l-.965,1.252a4.037,4.037,0,0,1-.579,2.8c-.868,1.159-3.28.773-3.28.773l-.579,1.735a8.787,8.787,0,0,0-1.828.677.518.518,0,0,0-.1.107,11.8,11.8,0,0,0-.488,1.918c-.29.869.675,1.543.579,2.508s-1.737,1.447-1.737,1.447a10.525,10.525,0,0,1-.674,2.508A2.156,2.156,0,0,1,179.234,112l.387.965-2.5.37-.1.017s-.968,1.543-1.641,1.543-1.06.965-1.351,2.121a22.894,22.894,0,0,1-.356,2.694,2.427,2.427,0,0,1-.318.587,13.515,13.515,0,0,1-2.22,1.929c-.191.291,0,.869.291,1.543a8.55,8.55,0,0,1,.288,2.316s.968.773.968,1.159-3.184.288-3.184-.1a7.528,7.528,0,0,1,.772-1.735,3.936,3.936,0,0,0-1.641,0c-.869.192-.483.674-.483.674l-1.253-.1v1.255s-1.929,0-2.316.962a8.5,8.5,0,0,0-.482,2.124h-2.029s-.287.386-.479.674a37.315,37.315,0,0,1-5.21,3.28,7.67,7.67,0,0,1-2.507-.291v-1.156l-1.447-.386s.191-1.252-.291-1.252h-1.542s-.674-1.929-1.351-1.929-1.834-1.159-1.834-1.159l1.064-1.061,1.733-1.157a5.128,5.128,0,0,1-1.542-.965,9.439,9.439,0,0,0-1.737-1.351c-.288-.195-1.543-.1-2.026-.773a3.476,3.476,0,0,1-.186-1.628c.039-1.385.281-3.1.281-3.1l1.16-.581s.1-1.735.674-1.831,1.447-.195,1.447-.195l.087-1.825.009-.2-.77-.386c-.773-.386-1.642-6.849-1.642-6.849a6.126,6.126,0,0,1,.774-1.061c.386-.386-.1-1.447.1-1.833s1.642-1.929,1.543-2.22c-.028-.082-.223-.149-.485-.217-.637-.161-1.693-.307-1.831-.649a1.2,1.2,0,0,1,.1-.965l-.677-1.351,4.535-3.185s-1.046-1.859-1.65-2.962c-.175-.319-.313-.575-.378-.7a41.56,41.56,0,0,1-.866-4.632l1.734-.1-.868-1.738.772-.384.965-4.922a13.816,13.816,0,0,0,2.026.869,5.193,5.193,0,0,0,2.894,0s.29.578,1.833,1.061,1.93-.965,2.7-1.061a2.123,2.123,0,0,1,1.447.482l.674-.578s.675.77,1.256.578-.773-2.025-.773-2.025l.773-1.833-1.641-.192-1.93-2.606h-1.06s-.772-1.831-1.638-3.774c-.833-1.861-7.428-3.421-10.689-3.974l0,0c-.141-.025-.276-.048-.4-.068a19.814,19.814,0,0,0-7.912,0c-2.214.51-3.451,1.623-4.973,2.407h0c-.2.1-.409.2-.621.293a4.163,4.163,0,0,1-2.657-.051,4.916,4.916,0,0,0-3.226.051c-2.316.965-1.351.578-2.895,2.99a37.257,37.257,0,0,0-1.929,3.667,35,35,0,0,1-3.858,4.05c-1.543,1.543-.387,2.217.191,2.121a11.178,11.178,0,0,0,2.22-1.157l.965.482s-.483,2.8-1.544,3.955c-.948,1.032-1.591,2.6-4.595,3.613-.361.124-.759.237-1.193.341a47.073,47.073,0,0,0-13.119,6.174c-.189.135-.362.268-.517.4-2.143,1.788-1.235,2.936-1.415,5-.192,2.22.485,2.7,0,4.536a7.8,7.8,0,0,1-2.218,3.568,3.786,3.786,0,0,0-.964,2.99,1.954,1.954,0,0,1-.71,1.6,28.2,28.2,0,0,1-2.666,1.681c-1.283.815-2.843,1.664-3.965,2.22a8.19,8.19,0,0,1-1.437.618q-.58.055-2.025,4.107c-.968,2.7-.291,2.22-.291,2.22a17.858,17.858,0,0,0-1.546,2.316c-.961,1.639-.287,2.7.29,3.763a7.174,7.174,0,0,1,.556,1.264,3.052,3.052,0,0,1,.118.471l1.542-.1s.1.965.2,1.639,1.93.965,1.93.965l-.773,1.159ZM78.959,131l1.366.434h.73l.8.508h0l-.795-.507h-.733Zm-.146-5.788s1.3.364,1.448.869a1.949,1.949,0,0,1,.064.518,1.949,1.949,0,0,0-.064-.518C80.116,125.576,78.813,125.212,78.813,125.212Zm-2.747-3.255h1.156l1.522,1.3.648.748-.578,1.2.581-1.2-.651-.748-1.522-1.3H76.066Zm-1.16-7.235s.508,2.553.508,2.688.07,1.292.287,1.436.364.869.364.869-.147-.725-.362-.869-.29-1.3-.29-1.436S74.906,114.722,74.906,114.722Zm.578-5.571.576,1.078.006.008-.006-.008-.572-1.078L74.4,107.561v0Zm-5.063-5.788a20.964,20.964,0,0,1,.768,3.98h1.185l1.3,2.46h0l-1.3-2.46H71.191a21.207,21.207,0,0,0-.771-3.98c-.155-.249-.657-.377-1.181-.442C69.763,102.987,70.266,103.115,70.421,103.363Zm-2.6-.5-.291-1.3a3,3,0,0,1-.382.023,3,3,0,0,0,.382-.023Zm.208,0h0ZM64.633,99.53s1.013,1.3,1.447,1.735a1.336,1.336,0,0,0,.83.3,1.336,1.336,0,0,1-.83-.3C65.646,100.831,64.633,99.53,64.633,99.53Zm1.086-3.4a3.314,3.314,0,0,0,.361-1.156A3.366,3.366,0,0,1,65.719,96.128ZM64.54,93.714l1.033.68.507.578-.507-.578Zm-1.715-2.288a12.22,12.22,0,0,1,1.808.8,12.22,12.22,0,0,0-1.808-.8,2.91,2.91,0,0,0-.671-.064A2.934,2.934,0,0,1,62.825,91.426ZM61.161,90.2l.071,1.23Zm-.24-3.912.6,1.958-.6-1.958a5.9,5.9,0,0,1,.671-.936A5.774,5.774,0,0,0,60.921,86.284Zm.674-.936c.421-.421,1.519-1.792,1.588-1.877C63.114,83.556,62.014,84.927,61.6,85.348Zm.071-4.558,1.159.508,1.156,1.808L62.825,81.3l-1.156-.508s2.69-1.447,3.286-2.324C64.358,79.342,61.666,80.79,61.666,80.79ZM64.342,76.3c0,.361,1.23.361,1.23.361S64.342,76.666,64.342,76.3Zm.508-1.086s-.789-.261-.8-.474C64.061,74.957,64.85,75.219,64.85,75.219Zm-.8-.5c.071-.217.652-.361.869-.8C64.7,74.353,64.126,74.5,64.055,74.714Zm.869-.8a19.544,19.544,0,0,0,.648-1.954A20.417,20.417,0,0,1,64.924,73.919Zm96.331-1.23,1.267.4,1.067-.835s.014-.025.037-.062a10.45,10.45,0,0,0,.56-1.024,2.568,2.568,0,0,0,.033-.535,2.568,2.568,0,0,1-.033.535,10.45,10.45,0,0,1-.56,1.024c-.023.037-.037.062-.037.062l-1.067.835ZM59.567,64.946h.508l1.012,1.664h2.461l2.532,2.533L63.548,66.61H61.087l-1.012-1.664H59.57a6.552,6.552,0,0,0,.144-1.065A6.444,6.444,0,0,1,59.567,64.946Zm101.64,3.373c.044-.177.088-.358.13-.524h0C161.295,67.96,161.25,68.142,161.207,68.319Zm2.4-1.2-.664.471.664-.471s.578-.508.578-.725C164.186,66.61,163.608,67.118,163.608,67.118ZM160.857,66.971Zm-31.581-.966h0Zm.071-.014.015-.007Zm16.7-.3a.511.511,0,0,0-.064.038.511.511,0,0,1,.064-.038c.581-.288,1.546-.77,1.546-.77S146.63,65.406,146.049,65.693Zm1.545-.771a1.581,1.581,0,0,1-.386-.926A1.573,1.573,0,0,0,147.594,64.923Zm11.381-.58.714.53h0l-.714-.53h0ZM59.64,62.63s.074.8.074,1.23C59.714,63.426,59.64,62.63,59.64,62.63Zm103.948.821ZM147.6,63.282a3.665,3.665,0,0,0,1.156-1.447A3.665,3.665,0,0,1,147.6,63.282Zm-87.81-1.52-.144.869.147-.866.506-.942Zm95.575-3.038s2.386,3.4,2.6,3.836c-.217-.434-2.6-3.836-2.6-3.836a.006.006,0,0,0,0,0A.006.006,0,0,1,155.36,58.724Zm-4.389-2.386-.965,1.238-3.088,4.259,3.088-4.259.965-1.238,1.734-1.159Zm15.721,4.823c-1.542.288-1.638.482-1.638.482s.1-.195,1.638-.482,2.607-.386,2.607-.386S168.237,60.87,166.693,61.161ZM169,60.125c0-.126.079-.219.3-.219h1.831l1.063-.4-1.063.4H169.3C169.078,59.905,169,60,169,60.125ZM62.461,58.219a14.429,14.429,0,0,1-1.072,1.149,14.54,14.54,0,0,0,1.075-1.149l.361-1.377Zm92.1-1.086ZM61.448,52.067l2.315,2.172a3.358,3.358,0,0,1-.073,1.447,2.383,2.383,0,0,1-.865,1.156,2.38,2.38,0,0,0,.868-1.156,3.343,3.343,0,0,0,.07-1.447ZM153.044,56.408Zm0-1.2Zm-.462-.1ZM60.363,48.956a.9.9,0,0,0-.07,1.233h0a.892.892,0,0,1,.073-1.23,5.64,5.64,0,0,0,.855-1.7A5.583,5.583,0,0,1,60.363,48.956Zm84.625-8.214c.08.045.164.09.246.135l-.214-.175Z" transform="translate(0 0)" fill="#fff"/>
      </g>
      <path id="Path_14" data-name="Path 14" d="M278.327,66.948v-.965a12.509,12.509,0,0,0-2.7,0c-.386.193-.965-.965-.965-.965h-2.315l-1.254-1.158-1.6-.759-.231-.109-1.543.868-1.061-1.929-.965-1.447-.892-1.47c-.779,1.328-1.864,2.956-2.388,2.724-.868-.386-.965-1.158-1.736-1.254s-3.087.868-4.341-.1-1.35-2.219-2.6-2.7c-.862-.332-1.223.2-1.647-.026a2.017,2.017,0,0,1-.669-.939c-.868-1.833-.965-4.245-1.35-5.016s-1.544-1.64-2.026-3.28a5.062,5.062,0,0,1,.1-3.183,17.038,17.038,0,0,0,.193-1.833s-.868-.289-2.219-.772-1.833-1.447-2.99-1.543-.772,1.544-2.991,2.026-2.6,1.254-3.473.1-2.315-1.833-2.219-2.315l.1-.482s.289-1.351.482-2.026.482-2.219.193-2.315-2.026,0-2.122-.482-1.158-1.543.289-3.28,2.508-1.929,2.122-3.762-1.35-2.219-1.35-3.569,0-1.833.675-2.6.675-2.991,1.061-3.859.675-1.543.675-1.543-.482-1.64-.675-2.6a6.006,6.006,0,0,1-.1-1.736l-2.219-2.991s-.386-5.4-.868-6.656A9.951,9.951,0,0,1,232.217,0a5.649,5.649,0,0,0-1.351,1.061,3.408,3.408,0,0,1-1.254.868s.579,2.8.289,3.087-1.447,4.052-2.508,4.341-2.315-.965-2.315-.965a24.016,24.016,0,0,0-2.122,2.219,3,3,0,0,0,.1,1.061s1.158.386,1.061.772a3.618,3.618,0,0,0-.1.772s-.193,1.543-1.061,1.833-.675.868-.386,1.061-.386,1.158-.386,1.158l.386.868s1.158-.193,1.35.482.965,3.955-.193,4.727a7.609,7.609,0,0,1-3.183.868l-.29,3.087s2.508.868,2.122,1.833a12.5,12.5,0,0,0-.579,1.929s2.508.482,2.122,1.351-.965,3.666-2.6,3.859-2.894.386-3.087.675-.289,2.315-1.639,2.412a4.048,4.048,0,0,1-1.062-.1,15.569,15.569,0,0,1-2.8-.958l-.1,1.061a4.527,4.527,0,0,0-1.929.675c-.482.482-1.158,3.376-2.315,4.052a2.753,2.753,0,0,1-.57.248l-.105,1.44L207.5,47.22a5.725,5.725,0,0,1-.868,1.736.892.892,0,0,0-.072,1.23h1.158v1.881l2.315,2.17a3.36,3.36,0,0,1-.072,1.447,2.382,2.382,0,0,1-.868,1.158l-.362,1.375a13.945,13.945,0,0,1-1.085,1.158,12.446,12.446,0,0,0-1.085,1.447l-.506.941-.145.868s.072.8.072,1.23a6.373,6.373,0,0,1-.145,1.085h.506l1.013,1.664h2.46l2.532,2.532-.506,1.3v1.519a19.971,19.971,0,0,1-.651,1.953c-.217.434-.8.579-.868.8s.8.506.8.506l-.506.723V76.3c0,.362,1.23.362,1.23.362a4.6,4.6,0,0,1-.579,1.736c-.506.868-3.328,2.388-3.328,2.388l1.158.506,1.158,1.809-.8.362s-1.158,1.447-1.592,1.881a5.891,5.891,0,0,0-.671.937l.6,1.957V89.4l-.362.8.072,1.23a5.434,5.434,0,0,1,1.592,0,12.307,12.307,0,0,1,1.809.8v1.447l-.092.046,1.032.677.506.579a3.373,3.373,0,0,1-.362,1.158,4.922,4.922,0,0,0-.506,1.239l-.579,2.162s1.013,1.3,1.447,1.736,1.447.289,1.447.289l.289,1.3s2.243-.072,2.6.506a21.031,21.031,0,0,1,.769,3.979h1.185l1.3,2.46h.723V107.56l1.085,1.592.574,1.077,0,.008v3.028l-1.158,1.458s.506,2.551.506,2.687.072,1.293.289,1.437.362.868.362.868v2.243h1.158l1.519,1.3.651.748-.579,1.206s1.3.362,1.447.868a2.788,2.788,0,0,1,0,1.158L225.3,128.4l-.072.777V131l1.367.434h.732l.8.506,1.278-.543a7.335,7.335,0,0,0-.555-1.266c-.579-1.061-1.254-2.122-.289-3.762a17.825,17.825,0,0,1,1.544-2.315s-.675.482.289-2.219,1.64-4.07,2.026-4.109a8.145,8.145,0,0,0,1.436-.617c1.122-.554,2.683-1.4,3.966-2.22a27.619,27.619,0,0,0,2.666-1.682,1.945,1.945,0,0,0,.711-1.6,3.783,3.783,0,0,1,.965-2.99,7.8,7.8,0,0,0,2.219-3.569c.482-1.833-.193-2.315,0-4.534.18-2.069-.73-3.216,1.416-5,.155-.129.325-.262.513-.4a47.119,47.119,0,0,1,13.119-6.174c.437-.1.832-.218,1.2-.341,3-1.011,3.646-2.582,4.593-3.614,1.061-1.158,1.543-3.955,1.543-3.955l-.965-.482a11.168,11.168,0,0,1-2.219,1.158c-.579.1-1.736-.579-.193-2.122a34.73,34.73,0,0,0,3.859-4.052,37.721,37.721,0,0,1,1.929-3.666c1.543-2.412.579-2.025,2.894-2.99s4.052.772,5.884,0c.214-.09.419-.188.62-.292Z" transform="translate(-146.264 0)" fill="#fabe37" opacity="0.296"/>
      <path id="Path_15" data-name="Path 15" d="M467.3,105.181a4.049,4.049,0,0,1-1.35-2.7c0-1.543.29-1.929-.386-2.6s-.289-3.666-.289-3.666-9.646-.482-10.129,0a18.416,18.416,0,0,1-4.148,2.026c-.772.193-1.543-.868-2.412-.868s-2.412,2.219-3.569,2.219-1.351-.482-2.991-.579-5.4,1.351-6.946,1.543l-.169.021c-1.506.186-3.235.365-3.979.365a9.333,9.333,0,0,0-2.122.386c-.386.1-1.254-.868-1.254-1.929s.579-3.419-1.254-3.4a36.4,36.4,0,0,0-5.981.986c-.289.1-.193-2.8-1.35-4.052S418.194,91,418.194,91h-1.833s-3.955,3.473-4.245,4.727.1,3.087-.386,3.666.193,2.315.386,3.28.868,2.219-.1,2.894a6.658,6.658,0,0,0-1.64,1.833s1.64,3.473.964,4.534-1.351,1.929-1.158,2.315,2.219,4.534,1.929,4.92-.772,1.061-.772,1.061,1.64,1.447.772,1.929a1.574,1.574,0,0,1-1.64-.1s-.38.744-.892,1.617l.892,1.47.965,1.447,1.061,1.929,1.543-.868.23.109,1.6.759,1.254,1.158h2.315s.579,1.158.965.965a12.507,12.507,0,0,1,2.7,0v.965l.234,1.637c1.522-.785,2.759-1.9,4.975-2.409a19.8,19.8,0,0,1,7.91,0l.4.066a1.276,1.276,0,0,1,.465-.548l1.543-.772s-.868-.965,0-1.64A3.7,3.7,0,0,0,439.8,126.5H437.97l3.087-4.26.965-1.239,1.736-1.158-.125-.075q.236.049.462.1v1.2s1.3.217,1.519.723.8,1.592.8,1.592,2.388,3.4,2.6,3.835,1.013,1.785,1.013,1.785l.713.53h1.313l.362,1.085-.506,1.013.479.821c-.147.587-.334,1.362-.334,1.494v2.532l.253.868,1.266.4,1.067-.835.037-.061a10.4,10.4,0,0,0,.56-1.024,13.781,13.781,0,0,0,0-1.736l-.94-1.158-.3-.684.662-.473s.579-.506.579-.723a8.826,8.826,0,0,0-.362-1.23,5.934,5.934,0,0,0-.145-.82,6.373,6.373,0,0,1-.091-.891c.1-.137.2-.286.308-.459a4.429,4.429,0,0,1,1.158-1.35s.1-.193,1.64-.482,2.6-.386,2.6-.386-.675-.868,0-.868h1.833l1.061-.4,1.952-1.182c-.137-.143-.274-.289-.408-.442a11.786,11.786,0,0,1-2.249-4.936,6.537,6.537,0,0,1-.162-1.624c.1-1.623.57-4.092,1.7-5.079.012-.01.023-.023.036-.034a7.685,7.685,0,0,1,1.64-1.158s-.579-1.061.483-2.8Zm-31.256.227.03-.04.216.176-.247-.136" transform="translate(-291.051 -64.664)" fill="#80bfed" opacity="0.395"/>
      <path id="Path_16" data-name="Path 16" d="M546.211,224.729l-1.64-.579-.772-2.219-3.087-.482a2.737,2.737,0,0,0-.868-2.026,4.194,4.194,0,0,1-1.158-1.833l2.122-.482s.14-1.472.21-2.706a6.221,6.221,0,0,0-.017-1.635c-.193-.289-2.991-.289-2.991-.289a3.762,3.762,0,0,1-.289-2.219c.289-.965.965-1.929.965-2.7s-.965-1.447-.965-1.447l4.438-5.029s-6.56-1.82-7.814-1.916a6.6,6.6,0,0,1-1.436-.28,5.685,5.685,0,0,1-.783-.3v-2.7s-.418-.271-1.018-.75a17.18,17.18,0,0,1-1.66-1.509l-1.952,1.182-1.061.4H524.6c-.675,0,0,.868,0,.868s-1.061.1-2.6.386-1.64.482-1.64.482A4.429,4.429,0,0,0,519.2,198.3c-.1.173-.207.322-.307.459a6.3,6.3,0,0,0,.09.892,5.942,5.942,0,0,1,.145.82,8.825,8.825,0,0,1,.362,1.23c0,.217-.579.724-.579.724l-.662.473.3.684.941,1.158a13.764,13.764,0,0,1,0,1.736,10.475,10.475,0,0,1-.56,1.024l-.037.061-1.067.835-1.266-.4-.253-.868v-2.532c0-.132.188-.907.334-1.494l-.479-.821.506-1.013-.362-1.085h-1.313l-.713-.531s-.8-1.351-1.013-1.785-2.6-3.835-2.6-3.835-.579-1.085-.8-1.592-1.519-.724-1.519-.724v-1.2c-.15-.033-.3-.067-.462-.1l.125.075-1.736,1.158-.965,1.239-3.087,4.26h1.833a3.7,3.7,0,0,1-1.158,1.447c-.868.675,0,1.64,0,1.64l-1.543.772a1.275,1.275,0,0,0-.465.548c3.263.551,9.858,2.11,10.69,3.973.868,1.942,1.64,3.775,1.64,3.775h1.061l1.929,2.6,1.64.193-.772,1.833s1.351,1.833.772,2.026-1.254-.579-1.254-.579l-.675.579a2.116,2.116,0,0,0-1.447-.482c-.772.1-1.157,1.543-2.7,1.061s-1.833-1.061-1.833-1.061a5.193,5.193,0,0,1-2.894,0,13.978,13.978,0,0,1-2.026-.868l-.965,4.92-.772.386.868,1.736-1.737.1a41.262,41.262,0,0,0,.868,4.63c.065.129.2.385.376.7.6,1.1,1.65,2.963,1.65,2.963l-4.534,3.183.675,1.35a1.2,1.2,0,0,0-.1.965c.137.342,1.192.49,1.831.65.263.066.456.134.485.218.1.289-1.351,1.832-1.544,2.219s.29,1.447-.1,1.833a6.112,6.112,0,0,0-.772,1.061s.869,6.463,1.64,6.849l.772.386-.01.2-.087,1.827s-.868.1-1.447.193-.675,1.833-.675,1.833l-1.158.579s-.245,1.713-.283,3.1a3.522,3.522,0,0,0,.186,1.629c.482.675,1.736.579,2.026.772a9.505,9.505,0,0,1,1.736,1.351,5.135,5.135,0,0,0,1.543.965l-1.736,1.158-1.061,1.061s1.158,1.158,1.833,1.158,1.35,1.929,1.35,1.929h1.544c.482,0,.289,1.254.289,1.254l1.447.386V269.3a7.655,7.655,0,0,0,2.508.289,37.284,37.284,0,0,0,5.209-3.28c.193-.289.482-.675.482-.675h2.026a8.548,8.548,0,0,1,.482-2.122c.386-.965,2.315-.965,2.315-.965V261.29l1.254.1s-.386-.483.482-.675a3.967,3.967,0,0,1,1.64,0,7.559,7.559,0,0,0-.772,1.736c0,.386,3.183.483,3.183.1s-.965-1.158-.965-1.158a8.505,8.505,0,0,0-.289-2.315c-.289-.675-.482-1.254-.289-1.544a13.44,13.44,0,0,0,2.219-1.929,2.51,2.51,0,0,0,.32-.588,23.272,23.272,0,0,0,.355-2.692c.289-1.158.675-2.122,1.351-2.122s1.64-1.543,1.64-1.543l.1-.015,2.5-.371-.386-.965a2.158,2.158,0,0,0,1.351-1.254,10.577,10.577,0,0,0,.675-2.508s1.64-.482,1.736-1.447-.868-1.64-.579-2.508a11.635,11.635,0,0,1,.488-1.919.53.53,0,0,1,.1-.107,8.774,8.774,0,0,1,1.826-.675l.579-1.736s2.412.386,3.28-.772a4.041,4.041,0,0,0,.579-2.8l.964-1.254s.483-1.929.675-2.894a11.756,11.756,0,0,0,0-2.7" transform="translate(-355.303 -135.305)" fill="#80bfed" opacity="0.4"/>
      <path id="Path_17" data-name="Path 17" d="M84.987,242.27c-.1-.675-.193-1.64-.193-1.64l-1.543.1a3.212,3.212,0,0,0-.121-.471l-1.278.543-.8-.506h-.732l-1.367-.434v-1.828l.072-.777,1.23-1.158a2.788,2.788,0,0,0,0-1.158c-.145-.506-1.447-.868-1.447-.868l.579-1.206-.651-.748-1.519-1.3H76.064v-2.243s-.145-.723-.362-.868-.289-1.3-.289-1.437-.506-2.686-.506-2.686l1.158-1.458v-3.028l0-.008-.574-1.077L74.4,216.417v2.243h-.723l-1.3-2.46H71.189a21.028,21.028,0,0,0-.769-3.979c-.362-.579-2.6-.506-2.6-.506l-.289-1.3s-1.013.145-1.447-.289-1.447-1.736-1.447-1.736l.579-2.162a4.924,4.924,0,0,1,.506-1.239,3.373,3.373,0,0,0,.362-1.158l-.506-.579-1.033-.677.092-.046v-1.447a12.306,12.306,0,0,0-1.809-.8,5.432,5.432,0,0,0-1.592,0l-.072-1.23.362-.8V197.1l-.6-1.957a5.853,5.853,0,0,1,.672-.937c.434-.434,1.592-1.881,1.592-1.881l.8-.362-1.158-1.809-1.158-.506s2.822-1.519,3.328-2.387a4.6,4.6,0,0,0,.579-1.736s-1.23,0-1.23-.362V184.8l.506-.723s-.868-.289-.8-.506.651-.362.868-.8a19.973,19.973,0,0,0,.651-1.953V179.3l.506-1.3-2.532-2.532h-2.46L60.074,173.8h-.506a6.372,6.372,0,0,0,.145-1.085c0-.434-.072-1.23-.072-1.23l.145-.868.506-.941a12.448,12.448,0,0,1,1.085-1.447,13.935,13.935,0,0,0,1.085-1.158l.362-1.375a2.381,2.381,0,0,0,.868-1.158,3.36,3.36,0,0,0,.072-1.447l-2.315-2.17v-1.881H60.292a.892.892,0,0,1,.072-1.23,5.724,5.724,0,0,0,.868-1.736l.217-1.447.105-1.44a3.765,3.765,0,0,1-1.938.041s-1.929.675-3.569,1.351a34.026,34.026,0,0,0-3.955,2.122s-.386,2.508-1.833,2.894-1.736-.868-2.508-.579.1,3.376-1.061,4.052-1.833.868-2.412.675-4.052.675-4.052.675.772,2.7-1.158,3.183-.965,1.254-.965,1.254.868.965,1.254,1.351a10.685,10.685,0,0,1,.965,2.508H38.972l-.193,2.026-2.026.193a4.009,4.009,0,0,1,.675,2.6c-.1,1.64-.675,2.508-1.061,2.508s-2.026-.193-2.026-.193l-1.061,2.991a9.955,9.955,0,0,0-2.6,1.543c-.386.579-4.727,5.981-4.823,6.463s.193,2.6.193,3.087.675.965.675.965l.193.868-.783.065-.374.031a10.149,10.149,0,0,1-1.929,2.508,9.236,9.236,0,0,1-2.508.772s-1.254,4.534-1.833,4.63a1.332,1.332,0,0,0-.868.675s1.061,1.061.386,1.64-1.543,1.929-3.183,2.122-2.122.193-2.122.193l.289,1.929s.1,1.158-1.447,1.158a6.062,6.062,0,0,1-2.508-.482l-1.351-.1L8.1,212.462l-2.315-.482-.482,1.736a6.52,6.52,0,0,0-1.447-.771c-.289,0-.868.675-.868.675l-.482,1.64-.772.579.386,1.35s.1,1.158.1,1.544.386,1.254-.482,1.447a.894.894,0,0,0-.259.111A4.305,4.305,0,0,0,0,222.976a17.061,17.061,0,0,0,1.158,4.148,10.422,10.422,0,0,1,.675,2.026l-.193,2.315a21.259,21.259,0,0,1-.675,2.7c-.289.675,4.727-1.254,7.814-1.158a32.991,32.991,0,0,0,3.859,0,2.466,2.466,0,0,0-.675-1.158c-.482-.386-1.254-.772-1.929-1.254a5.408,5.408,0,0,1-1.254-1.64,1.285,1.285,0,0,0-1.351-1.35c-1.447-.1-1.447-1.022-1.447-1.022s1.254-.521.868-1.293-1.254-1.158-.868-1.447-.675.482-1.158,0,0-1.447,0-1.447l2.315-.386.675-.772.035-.546.158-2.444h2.026a3.426,3.426,0,0,1,.289,1.254,20.669,20.669,0,0,1-1.7,2.026l.831.675a4.431,4.431,0,0,0,1.158-1.351c.289-.675,1.543-.965,1.543-.965l2.315-.482.482.772s.675-1.158,1.158-1.929,2.026,0,2.026,0,.579,1.447,0,1.929L18,220.29l-.446.372-.193.772-1.543.1-1.158,2.412-1.447,1.517-.868,3.307a5.032,5.032,0,0,0,2.026-.1c.482-.289-.482-1.254-.482-1.254s.579-2.272.868-1.956a4.117,4.117,0,0,0,1.544.509,4.256,4.256,0,0,1,.675-1.833c.482-.482,1.833-1.254,2.026-.965s.579,1.447,0,1.64-2.122,3.28-2.508,3.666a4.333,4.333,0,0,0-.675,1.447l-1.351.965-.868.289,1.351,1.351-1.061.868a77.192,77.192,0,0,1,9,1.058c.479.09.956.187,1.423.292,4.727,1.061,10.708,3.666,12.058,3.473a3.636,3.636,0,0,0,.711-.2c1.481-.547,3.788-1.981,5.752-2.308a54.774,54.774,0,0,1,6.68-.436,56.47,56.47,0,0,1,6.97.269c.42.048.824.1,1.205.167a106.33,106.33,0,0,1,11.176,2.32,21.627,21.627,0,0,1,2.233.766c2.99,1.254,8.586,4.245,9.454,4.534a5.245,5.245,0,0,0,2.219,0l3.376,1.061.772-1.158s-1.833-.29-1.929-.965" transform="translate(0.001 -108.857)" fill="#ffa8ca" opacity="0.298"/>
    </g>
    <g id="Group_62" data-name="Group 62" transform="translate(-18 9)">
      <rect id="Rectangle_45" data-name="Rectangle 45" width="104" height="32" rx="16" transform="translate(33 1967)" fill="#ed8fb4"/>
      <text id="西部エリア" transform="translate(85 1989)" fill="#fff" font-size="16" font-family="ShipporiMincho-Bold, しっぽり明朝" font-weight="700"><tspan x="-40" y="0">西部エリア</tspan></text>
    </g>
    <g id="Group_64" data-name="Group 64" transform="translate(103 -71.664)">
      <rect id="Rectangle_45-2" data-name="Rectangle 45" width="104" height="32" rx="16" transform="translate(33 1967)" fill="#dea71e"/>
      <text id="中部エリア" transform="translate(85 1989)" fill="#fff" font-size="16" font-family="ShipporiMincho-Bold, しっぽり明朝" font-weight="700"><tspan x="-40" y="0">中部エリア</tspan></text>
    </g>
    <g id="Group_65" data-name="Group 65" transform="translate(175 118.336)">
      <rect id="Rectangle_45-3" data-name="Rectangle 45" width="152" height="32" rx="16" transform="translate(9 1967)" fill="#3a9be5"/>
      <text id="東部_伊豆エリア" data-name="東部・伊豆エリア" transform="translate(85 1989)" fill="#fff" font-size="16" font-family="ShipporiMincho-Bold, しっぽり明朝" font-weight="700"><tspan x="-64" y="0">東部・伊豆エリア</tspan></text>
    </g>
  </g>
</svg>
